<?xml version="1.0" encoding="UTF-8"?>
<svg version="1.1" xmlns="http://www.w3.org/2000/svg" width="1024" height="1024">
<path d="M0 0 C337.92 0 675.84 0 1024 0 C1024 337.92 1024 675.84 1024 1024 C686.08 1024 348.16 1024 0 1024 C0 686.08 0 348.16 0 0 Z " fill="#FCFCFC" transform="translate(0,0)"/>
<path d="M0 0 C0.9420881 -0.00380567 1.88417619 -0.00761134 2.85481241 -0.01153234 C6.04159736 -0.02191647 9.22820643 -0.01792942 12.41500378 -0.01409245 C14.71083237 -0.01854115 17.00665943 -0.02385397 19.30248421 -0.02996117 C25.63481083 -0.04419568 31.96708849 -0.04580343 38.29942882 -0.04536426 C44.4199073 -0.04587254 50.54036958 -0.05763867 56.66083753 -0.06805556 C71.5068438 -0.09282011 86.35283893 -0.10158095 101.19886301 -0.10659205 C101.96808471 -0.10685322 102.7373064 -0.1071144 103.52983785 -0.10738349 C104.30057009 -0.10764376 105.07130232 -0.10790404 105.86539008 -0.1081722 C114.39863493 -0.11125199 122.93187667 -0.11775584 131.46511936 -0.12438488 C157.22861391 -0.14403512 182.99210508 -0.16043824 208.7556076 -0.16326141 C209.58001141 -0.16335547 210.40441522 -0.16344954 211.25380096 -0.16354645 C214.5948889 -0.16392494 217.93597685 -0.16428893 221.27706481 -0.16464943 C223.7918911 -0.16492115 226.3067174 -0.16519783 228.82154369 -0.16547489 C229.65253786 -0.16556291 230.48353203 -0.16565094 231.33970784 -0.16574163 C257.45478015 -0.16864759 283.56977848 -0.19074665 309.68482494 -0.22699833 C339.00817849 -0.26770235 368.33148162 -0.29141981 397.65486497 -0.29172093 C400.78021507 -0.29181775 403.90556516 -0.29198448 407.03091526 -0.29220104 C407.80048604 -0.29224516 408.57005682 -0.29228927 409.36294792 -0.29233472 C421.76095549 -0.29345576 434.15888908 -0.31088172 446.55687281 -0.33402036 C459.0122262 -0.35683523 471.46747939 -0.36110607 483.922846 -0.34647106 C490.67392275 -0.33902483 497.42472712 -0.34026817 504.17577839 -0.36288166 C510.35098773 -0.38336876 516.52574096 -0.38096744 522.7009448 -0.36000682 C524.9398468 -0.35649221 527.17878104 -0.36150441 529.41764072 -0.37571125 C532.45230653 -0.39373313 535.48534379 -0.38118271 538.5199585 -0.36076355 C539.39695928 -0.37332692 540.27396007 -0.3858903 541.17753664 -0.39883438 C545.41045493 -0.33752201 548.11952314 -0.03306927 551.47553986 2.67386383 C555.15615937 6.52264599 555.53993702 9.20100512 555.47999096 14.41631222 C554.42994698 20.03713589 550.54728914 23.98753845 546.94874096 28.26006222 C545.8852644 29.57103878 545.8852644 29.57103878 544.80030346 30.90849972 C543.32623699 32.72314472 541.84275424 34.53017183 540.35108471 36.33037472 C537.75192744 39.5000787 535.22049825 42.71629202 532.69874096 45.94756222 C528.67297811 51.09977063 524.58306711 56.19459801 520.44874096 61.26006222 C516.39895664 66.22241538 512.39068977 71.21160146 508.44874096 76.26006222 C503.96673986 82.00016889 499.38917539 87.65699468 494.78467846 93.29912472 C491.29344013 97.5845784 487.85055208 101.90335675 484.44874096 106.26006222 C479.96673986 112.00016889 475.38917539 117.65699468 470.78467846 123.29912472 C467.29344013 127.5845784 463.85055208 131.90335675 460.44874096 136.26006222 C455.96673986 142.00016889 451.38917539 147.65699468 446.78467846 153.29912472 C442.83984303 158.14136346 438.96626975 163.03417402 435.12378979 167.95781612 C431.00201312 173.2252384 426.78346171 178.41179587 422.53858471 183.58037472 C420.99702305 185.46450564 419.47273641 187.36170972 417.94874096 189.26006222 C417.3694685 189.9577673 416.79019604 190.65547237 416.19336987 191.37432003 C415.35491528 192.41991085 415.35491528 192.41991085 414.49952221 193.48662472 C413.73055614 194.42755978 413.73055614 194.42755978 412.94605541 195.38750362 C411.74272882 197.22946768 411.74272882 197.22946768 412.16431713 199.43340206 C412.7994461 201.4543265 412.7994461 201.4543265 414.94874096 202.26006222 C417.25364645 202.35822359 419.56148602 202.38912538 421.86847973 202.3913641 C422.94887606 202.39453767 422.94887606 202.39453767 424.05109859 202.39777535 C426.47695538 202.40379125 428.90276039 202.40277407 431.32862377 202.40190792 C433.06300476 202.4049384 434.79738495 202.40845954 436.53176403 202.41243649 C440.27333954 202.42033498 444.01490547 202.425474 447.75648785 202.42872715 C453.67279521 202.43462923 459.58904216 202.45116231 465.50532055 202.47006893 C467.52957054 202.47640662 469.55382057 202.48273224 471.57807064 202.4890461 C473.09889476 202.49379481 473.09889476 202.49379481 474.6504426 202.49863946 C488.42808728 202.54073879 502.20570423 202.57369009 515.98340893 202.58598995 C525.27125303 202.59436686 534.55894806 202.61684506 543.8467176 202.65534562 C548.76314286 202.67512116 553.67934521 202.68750594 558.5958128 202.68251133 C563.22191978 202.67786912 567.84760432 202.69164689 572.47362614 202.71952343 C574.17072888 202.72644278 575.86787524 202.72655377 577.56497669 202.71932316 C579.88417636 202.71044079 582.20198115 202.72611678 584.52106762 202.74780941 C586.46676332 202.75139194 586.46676332 202.75139194 588.45176601 202.75504684 C593.5891965 203.49696848 596.73440145 205.69317253 599.88624096 209.76006222 C602.74696244 219.18361533 599.07121723 230.03859467 596.63624096 239.26006222 C596.46533947 239.91369747 596.29443798 240.56733273 596.11835766 241.24077511 C589.45581229 266.59050309 581.14286816 291.54289606 569.94874096 315.26006222 C569.1330691 317.01972504 568.31739865 318.77938852 567.50176525 320.53906918 C554.86266809 347.72394606 539.55295121 372.73207524 520.94874096 396.26006222 C520.03213489 397.44399793 519.11681166 398.62892772 518.20264721 399.81474972 C513.41238681 406.00750392 508.53099929 412.02730221 503.21436596 417.78349972 C501.38577566 419.78233808 499.61834725 421.810109 497.85499096 423.86553097 C493.64028176 428.69296112 489.1561598 433.23872244 484.62549877 437.76860714 C483.20954149 439.18674506 481.80175807 440.61302887 480.39405346 442.03935909 C474.2233795 448.22292444 467.7822299 453.82576764 460.94874096 459.26006222 C459.59645763 460.37975655 458.24716384 461.50307831 456.90186596 462.63115597 C448.92398846 469.26266764 440.80323109 475.38130785 432.03907299 480.93389034 C430.58251968 481.85797322 429.13070778 482.78955407 427.68262768 483.72685909 C389.87783891 508.18469918 347.97436332 526.85193152 302.94874096 532.26006222 C302.09489819 532.36302608 301.24105541 532.46598995 300.36133862 532.57207394 C229.24274793 540.79154954 152.45401578 517.58416151 95.90186596 473.63506222 C94.92733471 472.85131222 93.95280346 472.06756222 92.94874096 471.26006222 C92.02351635 470.51756222 92.02351635 470.51756222 91.07960033 469.76006222 C86.97099768 466.45730144 82.88640997 463.12627125 78.81153393 459.78203487 C77.13732794 458.41414495 75.45444539 457.058452 73.76514721 455.70928097 C68.83438603 451.7496267 64.23133245 447.68515667 59.83155346 443.14287472 C58.00689805 441.31821931 56.11316926 439.66684018 54.13624096 438.01006222 C49.08093616 433.65853515 44.70672996 428.6856019 40.26856518 423.72392941 C39.09522636 422.42253474 37.90038451 421.14059986 36.70264721 419.86162472 C30.18470599 412.85334296 24.47608083 405.27639726 18.73731518 397.63115597 C16.90680773 395.20447178 15.05662758 392.79384849 13.20264721 390.38506222 C-0.38963044 372.6407018 -11.64372924 354.02358383 -22.05125904 334.26006222 C-22.42734303 333.55317257 -22.80342701 332.84628292 -23.19090748 332.11797237 C-38.31486801 303.56705909 -48.95927507 272.45875537 -57.05125904 241.26006222 C-57.44450367 239.78642208 -57.44450367 239.78642208 -57.84569263 238.28301144 C-58.59979212 235.44652075 -59.33002925 232.60506843 -60.05125904 229.76006222 C-60.27144703 228.92998653 -60.49163502 228.09991085 -60.71849537 227.24468136 C-62.23844967 221.00885711 -62.97679338 214.67325427 -59.71141529 208.88506222 C-58.92057545 208.08068722 -58.92057545 208.08068722 -58.11375904 207.26006222 C-57.5891106 206.70318722 -57.06446217 206.14631222 -56.52391529 205.57256222 C-53.27504229 202.67701492 -50.38483821 203.12793817 -46.14929676 203.11530209 C-45.43099939 203.11177524 -44.71270203 203.10824839 -43.97263807 203.10461468 C-41.55360752 203.09389713 -39.13461631 203.09024144 -36.71556568 203.08647823 C-34.98616843 203.08017538 -33.25677281 203.07340989 -31.52737904 203.06621456 C-27.79726023 203.05152711 -24.06714776 203.03980957 -20.33701229 203.03026676 C-14.44253166 203.01484382 -8.54810519 202.99089562 -2.65366077 202.96536922 C14.10984919 202.8940855 30.8733901 202.83433652 47.63697338 202.78325558 C56.89069109 202.75498275 66.14435485 202.71961904 75.39801604 202.67660183 C81.26124486 202.6497777 87.12441261 202.63190443 92.98769081 202.62056458 C96.63161668 202.61145816 100.27546818 202.59410581 103.91935062 202.57438564 C105.61287807 202.56689319 107.30642456 202.56282807 108.99996853 202.56239033 C111.30672596 202.56131236 113.61310242 202.54810612 115.91979504 202.53180599 C117.21231654 202.52757405 118.50483805 202.52334211 119.83652687 202.51898193 C123.11451985 202.49895884 123.11451985 202.49895884 125.94874096 200.26006222 C125.5951507 194.78477061 122.28394403 191.32411399 119.01124096 187.19756222 C118.42294506 186.44241329 117.83464916 185.68726437 117.22852612 184.90923214 C113.05703866 179.58252 108.76433088 174.3693957 104.39795971 169.20146847 C101.27229935 165.44768498 98.27004992 161.60555547 95.26685619 157.75371456 C91.69782237 153.1867991 88.0544602 148.68505464 84.38624096 144.19756222 C79.65897878 138.41020545 75.07033979 132.54186684 70.53858471 126.59990597 C67.06694442 122.08718027 63.44850493 117.69364377 59.84644604 113.28496456 C55.3028997 107.71692592 50.85342535 102.08017514 46.42530346 96.42021847 C42.96985613 92.00404608 39.45938019 87.63240381 35.94874096 83.26006222 C30.10196146 75.97410846 24.26574114 68.68172306 18.51124096 61.32256222 C14.52938087 56.23101526 10.47530299 51.20333378 6.38624096 46.19756222 C-16.85299097 17.72049897 -16.85299097 17.72049897 -16.05125904 8.26006222 C-11.91319994 0.69740248 -8.15533118 -0.03528458 0 0 Z " fill="#1B3A55" transform="translate(243.05125904083252,250.7399377822876)"/>
<path d="M0 0 C0.65270154 -0.00538554 1.30540308 -0.01077108 1.97788346 -0.01631981 C4.15733457 -0.03058731 6.33617725 -0.02349904 8.51565552 -0.01637268 C10.08137499 -0.02207697 11.64709031 -0.02904146 13.21279907 -0.03717041 C17.46083138 -0.05511214 21.70865724 -0.05393136 25.95671606 -0.04822803 C29.505371 -0.04513713 33.05398622 -0.05122763 36.6026355 -0.05726677 C44.97634505 -0.07131419 53.34995259 -0.06974937 61.72366333 -0.05836487 C70.35620745 -0.04688764 78.98844075 -0.06095209 87.6209439 -0.08776134 C95.03767548 -0.10993067 102.45430958 -0.11655282 109.87107193 -0.11068493 C114.29845059 -0.10731658 118.72563008 -0.10972208 123.1529808 -0.12693596 C127.31784466 -0.14242236 131.48224892 -0.138431 135.64709473 -0.11963081 C137.17286212 -0.11594936 138.69866369 -0.1190405 140.22439957 -0.1295166 C154.56377656 -0.22043254 154.56377656 -0.22043254 160.37161255 4.38768005 C163.22688939 7.70348542 164.02439177 10.83676549 163.85183716 15.23460388 C163.27424606 17.82422051 162.26543414 19.41217799 160.7505188 21.5868988 C160.20548706 22.37338806 159.66045532 23.15987732 159.09890747 23.97019958 C156.34705458 27.82162677 153.56887765 31.64999691 150.74661255 35.45018005 C150.13688599 36.27453552 149.52715942 37.09889099 148.8989563 37.94822693 C144.59334866 43.76213995 140.25639098 49.55221413 135.90774536 55.33396912 C129.07796351 64.42383698 122.36045889 73.59703407 115.62893677 82.75975037 C108.88958278 91.93196739 102.12637354 101.08566202 95.30911255 110.20018005 C94.68979858 111.03025574 94.07048462 111.86033142 93.43240356 112.71556091 C91.7578664 114.94942329 90.07108195 117.17274175 88.37161255 119.38768005 C87.90900024 119.99273376 87.44638794 120.59778748 86.96975708 121.22117615 C83.80559917 125.2098232 81.64832227 127.02015406 76.63723755 127.8290863 C75.14450317 127.88902771 75.14450317 127.88902771 73.62161255 127.95018005 C72.6367688 128.01334412 71.65192505 128.07650818 70.63723755 128.1415863 C62.65619314 126.29907246 57.71299359 118.62791139 53.30911255 112.20018005 C52.18331801 110.59994708 51.05564074 109.00103736 49.92630005 107.40330505 C49.34589966 106.57894958 48.76549927 105.75459412 48.16751099 104.90525818 C45.16538661 100.69673364 42.04919608 96.57540843 38.93411255 92.45018005 C34.02560051 85.93279484 29.14454369 79.39699831 24.30911255 72.82518005 C23.73411011 72.04392761 23.15910767 71.26267517 22.56668091 70.45774841 C19.68908861 66.54537086 16.81604322 62.62969306 13.9458313 58.7118988 C6.94270424 49.16569798 -0.15482302 39.70150714 -7.38766479 30.32762146 C-8.02784546 29.49408142 -8.66802612 28.66054138 -9.3276062 27.80174255 C-10.17584961 26.70273621 -10.17584961 26.70273621 -11.04122925 25.58152771 C-15.28606227 19.71411199 -16.70028877 15.61705897 -15.62838745 8.38768005 C-11.9857496 2.04679194 -7.1052441 0.01480457 0 0 Z " fill="#69A7D9" transform="translate(438.6283874511719,508.61231994628906)"/>
<path d="M0 0 C0.65749066 -0.00453111 1.31498132 -0.00906223 1.99239594 -0.01373065 C4.18787896 -0.02635581 6.38311331 -0.02475554 8.57862854 -0.02310181 C10.1558209 -0.02908816 11.73301033 -0.03589396 13.31019592 -0.04345703 C17.58910756 -0.06111135 21.86793919 -0.06581211 26.14688373 -0.0670886 C28.82092351 -0.06851085 31.494943 -0.0727818 34.16897774 -0.07808304 C43.49971431 -0.09658 52.83039377 -0.10475389 62.16114807 -0.10317993 C70.85618251 -0.10197796 79.55096895 -0.12309197 88.24594063 -0.15466726 C95.71445045 -0.18082145 103.18287921 -0.19154762 110.65143448 -0.19026911 C115.11065236 -0.18975931 119.56964972 -0.19545262 124.02882195 -0.21662521 C128.2223893 -0.23599376 132.41552538 -0.23614175 136.60910797 -0.22159195 C138.1465906 -0.21950116 139.68410014 -0.22422092 141.22153664 -0.23631287 C143.32381526 -0.2517743 145.42460833 -0.24245384 147.52685547 -0.22705078 C148.70209998 -0.22814032 149.87734449 -0.22922985 151.08820248 -0.2303524 C155.05704696 0.37964322 157.20964178 1.77753059 160.32691956 4.26742554 C162.81528326 7.9999711 163.09549389 10.94443936 162.32691956 15.26742554 C160.97415312 18.15424951 159.14681742 20.56440341 157.20191956 23.07992554 C156.39428162 24.17180176 156.39428162 24.17180176 155.57032776 25.28573608 C154.42203639 26.83498145 153.26564003 28.37824747 152.1018219 29.91586304 C150.35853456 32.22553891 148.64497827 34.55421932 146.94020081 36.89242554 C140.35330598 45.91705703 133.64830005 54.8530231 126.93531799 63.7840271 C120.93210365 71.77691373 115.00153678 79.82224735 109.08277893 87.8777771 C104.35626842 94.31035287 99.62223961 100.73731916 94.87965393 107.15805054 C93.4535289 109.09542794 92.03709461 111.03943441 90.62379456 112.98617554 C89.84520081 114.04836304 89.06660706 115.11055054 88.26441956 116.20492554 C87.61344299 117.10082397 86.96246643 117.99672241 86.29176331 118.91976929 C83.2725988 122.52716068 80.95525832 124.95000254 76.24098206 125.86898804 C75.15559143 125.87672241 74.07020081 125.88445679 72.95191956 125.89242554 C71.87168518 125.92594116 70.79145081 125.95945679 69.67848206 125.99398804 C61.89502189 124.30666451 57.5586617 117.29999582 53.26441956 111.07992554 C52.12738286 109.46985508 50.98932813 107.86050318 49.85035706 106.25180054 C49.26995667 105.42744507 48.68955627 104.6030896 48.09156799 103.75375366 C45.24318093 99.74047559 42.3170726 95.78555932 39.38941956 91.82992554 C38.21358497 90.23751701 37.03780394 88.64506892 35.86207581 87.05258179 C35.27829163 86.26254761 34.69450745 85.47251343 34.09303284 84.65853882 C31.16735846 80.69751382 28.24747205 76.73222755 25.32691956 72.76742554 C24.16286254 71.18799441 22.99880003 69.60856733 21.83473206 68.02914429 C19.47348759 64.82478656 17.1143341 61.61890337 14.75660706 58.41195679 C13.57182384 56.80119686 12.38692867 55.19051928 11.20191956 53.57992554 C10.62288879 52.79279175 10.04385803 52.00565796 9.44728088 51.19467163 C6.16949825 46.74582372 2.86679611 42.31738171 -0.46458435 37.90853882 C-2.41828572 35.31886532 -4.35900088 32.71972433 -6.29466248 30.11654663 C-7.21313713 28.88443061 -8.13599595 27.65557058 -9.06321716 26.43002319 C-10.36683354 24.70016135 -11.64739635 22.95544334 -12.92308044 21.20492554 C-13.65011169 20.22394897 -14.37714294 19.24297241 -15.12620544 18.23226929 C-17.01369796 14.61457529 -17.12136134 12.29723481 -16.67308044 8.26742554 C-12.15808246 1.43042859 -7.94130248 0.02265513 0 0 Z " fill="#6AA8DA" transform="translate(439.67308044433594,310.7325744628906)"/>
<path d="M0 0 C0 3.95566141 -1.39609149 5.09914371 -3.875 8.125 C-4.59429688 9.01445313 -5.31359375 9.90390625 -6.0546875 10.8203125 C-8 13 -8 13 -10 14 C-9.690625 13.4225 -9.38125 12.845 -9.0625 12.25 C-7.92256867 10.07045276 -7.92256867 10.07045276 -7.5625 7.8125 C-7.376875 7.214375 -7.19125 6.61625 -7 6 C-6.01 5.67 -5.02 5.34 -4 5 C-4 4.01 -4 3.02 -4 2 C-2.68 1.34 -1.36 0.68 0 0 Z " fill="#13273D" transform="translate(760,649)"/>
<path d="M0 0 C0.99 0 1.98 0 3 0 C4.60546875 1.96875 4.60546875 1.96875 6.1875 4.5 C6.71730469 5.3353125 7.24710938 6.170625 7.79296875 7.03125 C8.19128906 7.6809375 8.58960938 8.330625 9 9 C7.06640625 8.6171875 7.06640625 8.6171875 5 8 C3.9375 6.125 3.9375 6.125 3 4 C2.01904252 2.98131338 1.02297922 1.97648017 0 1 C0 0.67 0 0.34 0 0 Z " fill="#EFF3F4" transform="translate(244,292)"/>
<path d="M0 0 C0.66 0.33 1.32 0.66 2 1 C1.01 1.99 0.02 2.98 -1 4 C-0.67 2.68 -0.34 1.36 0 0 Z M-2 4 C-2 6.62113708 -2.31292445 8.50935112 -3 11 C-3.99 11 -4.98 11 -6 11 C-4.92598892 8.08482708 -4.22189824 6.22189824 -2 4 Z " fill="#E9EEEF" transform="translate(785,616)"/>
<path d="M0 0 C0 3.65351863 -0.88942301 5.06026776 -3 8 C-5.109375 9.15234375 -5.109375 9.15234375 -7 10 C-6.02223933 8.51990357 -5.0427506 7.04094856 -4.0625 5.5625 C-3.51722656 4.73878906 -2.97195313 3.91507813 -2.41015625 3.06640625 C-1 1 -1 1 0 0 Z " fill="#0D2D4D" transform="translate(542,607)"/>
<path d="M0 0 C0.99 0 1.98 0 3 0 C3.33 2.31 3.66 4.62 4 7 C2 5.75 2 5.75 0 4 C0 2.68 0 1.36 0 0 Z " fill="#F2F4F5" transform="translate(186,500)"/>
<path d="M0 0 C1.65 1.65 3.3 3.3 5 5 C4.01 5.66 3.02 6.32 2 7 C0.4375 4.625 0.4375 4.625 -1 2 C-0.67 1.34 -0.34 0.68 0 0 Z " fill="#EFF3F5" transform="translate(365,442)"/>
<path d="M0 0 C0 3 0 3 -2.5 5.6875 C-3.325 6.450625 -4.15 7.21375 -5 8 C-4.67 5.69 -4.34 3.38 -4 1 C-2.68 0.67 -1.36 0.34 0 0 Z " fill="#0F253B" transform="translate(781,287)"/>
</svg>
